# xmcd
#
# Track frame offsets:
#	150
#	14436
#	27994
#	41054
#	55758
#	68566
#	82097
#	93576
#	104754
#	118916
#	131929
#	146764
#	160139
#	172822
#
# Disc length: 2524 seconds
#
# Revision: 0
# Processed by: cddbd v1.4PL0 Copyright (c) Steve Scherf et al.
# Submitted via: dBpowerAMP V4.0
#
DISCID=c809da0e
DTITLE=Marechal and Rondon - Marechal and Rondon
DYEAR=1900
DGENRE=Country
TTITLE0=Renê Bitencourt - Sinha Maria
TTITLE1=Caetano Erba e Tião Carro - Capiau
TTITLE2=Luci Martins e Edinho da Mata - Castiga - Me
TTITLE3=Tião Carreiro e Carreirinho - Caçador
TTITLE4=Tião Carrero e Zé Matão - Veneno Lento
TTITLE5=Ado Benati e Campos Negreiro - Bandeirante Fernão
TTITLE6=José Fortuna e Tião do Carro - De Que Adianta
TTITLE7=José Teixeira - Menina Linda
TTITLE8=Carreirinho - Nuvens Pardas
TTITLE9=Tião Carreiro e Donizeti - Velho Amor
TTITLE10=Carreirinho - Gostosura
TTITLE11=Cafezinho e Carreirinho - Não Posso Esquecer - Te
TTITLE12=Raul Torres e Jão Pacífico - Esqueça Tua maria
TTITLE13=Carreirinho - Última Viagem
EXTD=
EXTT0=
EXTT1=
EXTT2=
EXTT3=
EXTT4=
EXTT5=
EXTT6=
EXTT7=
EXTT8=
EXTT9=
EXTT10=
EXTT11=
EXTT12=
EXTT13=
PLAYORDER=
